# xmcd
#
# Track frame offsets:
#	150
#	10413
#	19673
#	39467
#	54201
#	81319
#	91262
#	101031
#	103101
#	119715
#	140883
#	147282
#	162737
#	176168
#	191060
#
# Disc length: 2824 seconds
#
# Revision: 1
# Processed by: cddbd v1.5.2PL0 Copyright (c) Steve Scherf et al.
# Submitted via: audiograbber 1.83.01
#
DISCID=da0b060f
DTITLE=Velvet Underground - The Best of (Words and Music of Lou Reed)
DYEAR=1989
DGENRE=
TTITLE0=I'm Waiting for the Man
TTITLE1=Femme Fatale
TTITLE2=Run Run Run
TTITLE3=Heroin
TTITLE4=All Tomorrow's Parties
TTITLE5=I'll Be Your Mirror
TTITLE6=White Light White Heat
TTITLE7=Stephanie Says
TTITLE8=What Goes On
TTITLE9=Beginning To See The Light
TTITLE10=Pale Blue Eyes
TTITLE11=I Can't Stand It
TTITLE12=Lisa Says
TTITLE13=Sweet Jane
TTITLE14=Rock And Roll
EXTD=
EXTT0=
EXTT1=
EXTT2=
EXTT3=
EXTT4=
EXTT5=
EXTT6=
EXTT7=
EXTT8=
EXTT9=
EXTT10=
EXTT11=
EXTT12=
EXTT13=
EXTT14=
PLAYORDER=
